<svg viewBox="0 0 512 512" xmlns="http://www.w3.org/2000/svg"><path d="m421 165c0 34.5-10.800781 67.800781-31.199219 96-18.898437 25.800781-28.800781 54-28.800781 81v18l-105 30-105-30v-20.699219c0-26.101562-9.601562-52.5-27.597656-76.800781-21.300782-28.800781-32.402344-62.402344-32.402344-97.5 0-90.902344 72.597656-165 165-165 91.800781.300781 165 74.097656 165 165zm0 0" fill="#ffe470"/><path d="m421 165c0 34.5-10.800781 67.800781-31.199219 96-18.898437 25.800781-28.800781 54-28.800781 81v18l-105 30v-390c91.800781.300781 165 74.097656 165 165zm0 0" fill="#ffd400"/><path d="m359.5 422c-6.902344 34.199219-37.199219 60-73.5 60h-60c-36.300781 0-66.597656-25.800781-73.5-60l103.5-32zm0 0" fill="#e2e2e7"/><path d="m301 497c0 8.398438-6.597656 15-15 15h-60c-8.402344 0-15-6.601562-15-15 0-8.402344 6.597656-15 15-15h60c8.402344 0 15 6.597656 15 15zm0 0" fill="#d3d3d8"/><path d="m497 180h-31c-8.289062 0-15-6.710938-15-15s6.710938-15 15-15h31c8.289062 0 15 6.710938 15 15s-6.710938 15-15 15zm0 0" fill="#ffd400"/><path d="m46 180h-31c-8.289062 0-15-6.710938-15-15s6.710938-15 15-15h31c8.289062 0 15 6.710938 15 15s-6.710938 15-15 15zm0 0" fill="#ffe470"/><path d="m424.867188 67.5c-4.144532-7.179688-1.683594-16.347656 5.492187-20.492188l25.988281-15c7.144532-4.148437 16.332032-1.6875 20.492188 5.492188 4.144531 7.179688 1.683594 16.347656-5.492188 20.492188l-25.988281 15c-7.097656 4.101562-16.300781 1.746093-20.492187-5.492188zm0 0" fill="#ffd400"/><path d="m35.160156 292.5c-4.144531-7.179688-1.683594-16.347656 5.492188-20.492188l25.988281-15c7.117187-4.132812 16.332031-1.6875 20.492187 5.492188 4.144532 7.179688 1.683594 16.347656-5.492187 20.492188l-25.988281 15c-7.097656 4.101562-16.300782 1.746093-20.492188-5.492188zm0 0" fill="#ffe470"/><path d="m456.347656 297.992188-25.988281-15c-7.175781-4.144532-9.636719-13.3125-5.492187-20.492188 4.148437-7.179688 13.285156-9.625 20.492187-5.492188l25.988281 15c7.175782 4.144532 9.636719 13.3125 5.492188 20.492188-4.1875 7.226562-13.386719 9.597656-20.492188 5.492188zm0 0" fill="#ffd400"/><path d="m66.640625 72.992188-25.988281-15c-7.175782-4.144532-9.636719-13.3125-5.492188-20.492188 4.160156-7.179688 13.300782-9.640625 20.492188-5.492188l25.988281 15c7.175781 4.144532 9.636719 13.3125 5.492187 20.492188-4.1875 7.226562-13.386718 9.597656-20.492187 5.492188zm0 0" fill="#ffe470"/><path d="m301 497c0 8.398438-6.597656 15-15 15h-30v-30h30c8.402344 0 15 6.597656 15 15zm0 0" fill="#babac0"/><path d="m359.5 422c-6.902344 34.199219-37.199219 60-73.5 60h-30v-92zm0 0" fill="#d3d3d8"/><path d="m301 240v135c0 8.398438-6.597656 15-15 15h-60c-8.402344 0-15-6.601562-15-15v-135l34.199219-30h21.601562zm0 0" fill="#ff7816"/><path d="m301 240v135c0 8.398438-6.597656 15-15 15h-30v-180h10.800781zm0 0" fill="#ff4b00"/><path d="m361 360v47c0 5.097656-.601562 10.199219-1.5 15h-207c-.898438-4.800781-1.5-9.902344-1.5-15v-47zm0 0" fill="#ececf1"/><path d="m361 360v47c0 5.097656-.601562 10.199219-1.5 15h-103.5v-62zm0 0" fill="#e2e2e7"/><path d="m301 240h-90l30.902344-109.800781c2.097656-6 8.097656-9.300781 14.097656-9.300781s12 3.300781 14.097656 9.300781zm0 0" fill="#fdbf00"/><path d="m301 240h-45v-119.101562c6 0 12 3.300781 14.097656 9.300781zm0 0" fill="#ff9f00"/></svg>