<?xml version="1.0" encoding="iso-8859-1"?>
<!-- Generator: Adobe Illustrator 19.0.0, SVG Export Plug-In . SVG Version: 6.00 Build 0)  -->
<svg version="1.1" id="Capa_1" xmlns="http://www.w3.org/2000/svg" xmlns:xlink="http://www.w3.org/1999/xlink" x="0px" y="0px"
	 viewBox="0 0 512 512" style="enable-background:new 0 0 512 512;" xml:space="preserve">
<rect x="8" y="276" style="fill:#FFFFFF;" width="357.6" height="228"/>
<rect x="36.8" y="304.8" style="fill:#2EA2DB;" width="300" height="170.4"/>
<rect x="8" y="210.4" style="fill:#FFFFFF;" width="357.6" height="66.4"/>
<g>
	<circle style="fill:#193651;" cx="48" cy="243.2" r="11.2"/>
	<circle style="fill:#193651;" cx="89.6" cy="243.2" r="11.2"/>
	<circle style="fill:#193651;" cx="132" cy="243.2" r="11.2"/>
</g>
<path style="fill:#FDBF5E;" d="M424,296H163.2c-44,0-80,36-80,80v52H504v-52C504,332,468,296,424,296z"/>
<g>
	<polygon style="fill:#FFFFFF;" points="352.8,232.8 352.8,209.6 235.2,209.6 235.2,234.4 200.8,294.4 295.2,355.2 389.6,294.4 	"/>
	<path style="fill:#FFFFFF;" d="M380,164.8c0,58.4-38.4,105.6-85.6,105.6s-85.6-47.2-85.6-105.6c0-21.6-5.6-62.4,3.2-79.2
		c15.2-28.8,52.8-26.4,82.4-26.4c32.8,0,75.2-1.6,89.6,32C391.2,105.6,380,146.4,380,164.8z"/>
</g>
<path style="fill:#F16051;" d="M396.8,66.4c-0.8-23.2-26.4-29.6-26.4-29.6C375.2,16.8,360,12,360,12c-40.8-8-105.6-1.6-105.6-1.6
	C200,12,192.8,60,191.2,64.8c0,0.8-0.8,5.6-0.8,11.2l0,0l0,0c0,4,0,9.6,0,14.4v40.8l18.4,26.4c0,0,6.4-96,107.2-97.6
	c0,0,12,51.2,60.8,56.8l4,2.4l-0.8,38.4c0-14.4,16-29.6,16-29.6C398.4,112.8,396.8,66.4,396.8,66.4z"/>
<g>
	<path style="fill:#193651;" d="M512,376c0-48.8-39.2-88-88-88h-28.8l-29.6-49.6c14.4-20,22.4-45.6,22.4-73.6
		c0-3.2,0.8-8.8,1.6-13.6c2.4-7.2,9.6-15.2,12-17.6l2.4-2.4c0,0,0.8-62.4,0-64.8c-0.8-20.8-16-30.4-25.6-35.2
		C379.2,14.4,368,6.4,360.8,4H360c-14.4-2.4-33.6-4-56-4c-27.2,0-50.4,2.4-51.2,2.4c-25.6,0.8-58.4,11.2-70.4,58.4v1.6
		c-0.8,1.6-0.8,71.2-0.8,71.2l19.2,27.2c0,1.6,0,3.2,0,4c0,12.8,1.6,25.6,5.6,37.6H0V512h373.6v-75.2H512V376z M295.2,278.4
		c22.4,0,44-10.4,60-26.4l24,40l-84,53.6L212,292l23.2-40.8C251.2,268,272,278.4,295.2,278.4z M361.6,244c0.8-0.8,0.8-1.6,1.6-1.6
		C362.4,243.2,362.4,243.2,361.6,244z M295.2,262.4c-42.4,0-77.6-44-77.6-97.6c0-2.4,0-4.8,0-7.2c0,0,0,0-0.8,0.8v-0.8
		c0-3.2,7.2-84.8,93.6-90.4c4.8,14.4,21.6,49.6,62.4,56v33.6c0,2.4-0.8,5.6-0.8,7.2C372,218.4,337.6,262.4,295.2,262.4z M198.4,67.2
		c0-0.8,0.8-1.6,0.8-2.4c7.2-30.4,25.6-45.6,55.2-46.4c0,0,23.2-2.4,50.4-2.4c21.6,0,39.2,1.6,52.8,4c2.4,0.8,8,4,4.8,15.2l-1.6,8
		l7.2,1.6c0.8,0,20,5.6,20,22.4c0,0,0.8,28,0.8,46.4l-9.6-5.6h-1.6c-42.4-4.8-53.6-48.8-53.6-50.4l-1.6-6.4H316
		c-77.6,1.6-103.2,56-111.2,86.4l-6.4-9.6C198.4,128,198.4,66.4,198.4,67.2z M16,218.4h196.8c3.2,7.2,7.2,13.6,11.2,20l-17.6,30.4
		H16V218.4z M357.6,496H16V284h181.6l-2.4,4H164c-48.8,0-88,39.2-88,88v60h281.6V496z M496,420.8H91.2V376c0-40,32-72,72-72h37.6
		l93.6,60l95.2-60H424c40,0,72,32,72,72V420.8z"/>
	<rect x="338.4" y="380.8" style="fill:#193651;" width="16" height="16"/>
	<rect x="285.6" y="380.8" style="fill:#193651;" width="16" height="16"/>
	<rect x="232.8" y="380.8" style="fill:#193651;" width="16" height="16"/>
	<rect x="180" y="380.8" style="fill:#193651;" width="16" height="16"/>
	<rect x="127.2" y="380.8" style="fill:#193651;" width="16" height="16"/>
	<rect x="391.2" y="380.8" style="fill:#193651;" width="16" height="16"/>
	<rect x="444" y="380.8" style="fill:#193651;" width="16" height="16"/>
</g>
<g>
</g>
<g>
</g>
<g>
</g>
<g>
</g>
<g>
</g>
<g>
</g>
<g>
</g>
<g>
</g>
<g>
</g>
<g>
</g>
<g>
</g>
<g>
</g>
<g>
</g>
<g>
</g>
<g>
</g>
</svg>
