<?xml version="1.0" encoding="utf-8"?>
<!-- Generator: Adobe Illustrator 21.0.2, SVG Export Plug-In . SVG Version: 6.00 Build 0)  -->
<svg version="1.1" id="Layer_1" xmlns="http://www.w3.org/2000/svg" xmlns:xlink="http://www.w3.org/1999/xlink" x="0px" y="0px"
	 viewBox="0 0 20 20" style="enable-background:new 0 0 20 20;" xml:space="preserve">
<style type="text/css">
	.st0{fill:#0078D6;}
	.st1{fill:#FFFFFF;}
</style>
<g>
	<title>icon-ubuntu</title>
	<path id="roundel" class="st0" d="M18.5,10c0,4.7-3.8,8.5-8.5,8.5S1.5,14.7,1.5,10S5.3,1.5,10,1.5S18.5,5.3,18.5,10"/>
	<path id="circle-of-friends" class="st1" d="M12.3,6c0.5,0.3,1.2,0.1,1.5-0.4C14.2,5,14,4.3,13.5,4c-0.5-0.3-1.2-0.1-1.5,0.4
		c0,0,0,0,0,0C11.6,5,11.8,5.7,12.3,6z M10,13.3c-0.5,0-1-0.1-1.4-0.3l-0.8,1.4c1.1,0.5,2.3,0.7,3.5,0.3c0.1-0.9,1-1.5,1.8-1.3
		c0.1,0,0.2,0,0.3,0.1c0.9-0.8,1.4-2,1.5-3.2l-1.6,0C13.2,12,11.7,13.3,10,13.3z M10,6.7c1.7,0,3.2,1.3,3.3,3l1.6,0
		c-0.1-1.2-0.6-2.3-1.5-3.2c-0.8,0.3-1.7-0.1-2.1-0.9c0-0.1-0.1-0.2-0.1-0.3C10.1,4.9,8.9,5,7.8,5.6L8.6,7C9,6.8,9.5,6.7,10,6.7z
		 M6.7,10c0-1.1,0.5-2.1,1.4-2.7L7.3,5.9c-1,0.7-1.7,1.7-2,2.9C5.9,9.3,6,10.3,5.5,11c-0.1,0.1-0.1,0.2-0.2,0.2c0.3,1.2,1,2.2,2,2.9
		l0.8-1.4C7.2,12.1,6.7,11.1,6.7,10z M12.3,14c-0.5,0.3-0.7,1-0.4,1.5s1,0.7,1.5,0.4c0.5-0.3,0.7-1,0.4-1.5c0,0,0,0,0,0
		C13.6,13.9,12.9,13.7,12.3,14z M4.2,8.9c-0.6,0-1.1,0.5-1.1,1.1c0,0.6,0.5,1.1,1.1,1.1c0.6,0,1.1-0.5,1.1-1.1
		C5.4,9.4,4.9,8.9,4.2,8.9"/>
</g>
</svg>
