<svg height="511pt" viewBox="-55 0 511 511.99798" width="511pt" xmlns="http://www.w3.org/2000/svg"><path d="m240.925781 456.355469-21.878906 24.042969h-36.382813l-21.878906-24.042969zm0 0" fill="#95adc0"/><path d="m256.953125 424.296875v32.058594h-112.199219v-32.058594zm0 0" fill="#aac4da"/><path d="m256.953125 392.242188v32.054687h-112.199219v-32.054687zm0 0" fill="#d9eef7"/><path d="m377.167969 183.871094c0 83.589844-58.183594 153.554687-136.242188 171.664062v36.707032h-80.140625v-36.707032c-78.058594-18.109375-136.242187-88.074218-136.242187-171.664062 0-97.371094 78.9375-176.3125 176.3125-176.3125s176.3125 78.941406 176.3125 176.3125zm0 0" fill="#ffc86b"/><path d="m88.65625 183.871094c0-86.417969 62.195312-158.269532 144.257812-173.351563-10.402343-1.910156-21.105468-2.960937-32.058593-2.960937-97.375 0-176.3125 78.941406-176.3125 176.3125 0 83.589844 58.183593 153.554687 136.242187 171.664062v36.707032h64.113282v-36.707032c-78.058594-18.109375-136.242188-88.074218-136.242188-171.664062zm0 0" fill="#fb9955"/><path d="m144.753906 392.242188h48.085938v32.054687h-48.085938zm0 0" fill="#aac4da"/><path d="m144.753906 424.296875h48.085938v32.058594h-48.085938zm0 0" fill="#95adc0"/><path d="m329.082031 183.871094h-128.226562v-128.226563c70.847656 0 128.226562 57.382813 128.226562 128.226563zm0 0" fill="#fd72ab"/><path d="m200.855469 183.871094h128.226562c0 70.847656-57.378906 128.226562-128.226562 128.226562-70.847657 0-128.226563-57.378906-128.226563-128.226562 0-70.84375 57.378906-128.226563 128.226563-128.226563zm0 0" fill="#649ae8"/><path d="m128.726562 183.871094c0-50.695313 29.457032-94.363282 72.128907-115.179688v-13.046875c-70.847657 0-128.226563 57.382813-128.226563 128.226563 0 70.847656 57.378906 128.226562 128.226563 128.226562 9.648437 0 19.011719-1.152344 28.050781-3.167968-57.328125-12.796876-100.179688-63.859376-100.179688-125.058594zm0 0" fill="#2d7ab2"/><path d="m192.839844 208.371094h16.03125v15.117187h-16.03125zm0 0" fill="#fff"/><g fill="#231f20"><path d="m208.414062 496.882812v-8.925781h13.976563l21.878906-24.042969h20.246094v-79.230468h-16.03125v-23.246094c37.449219-10.023438 71.257813-32.035156 95.722656-62.441406 26.128907-32.472656 40.519531-73.355469 40.519531-115.121094 0-29.433594-6.746093-57.554688-20.054687-83.585938l-13.457031 6.882813c12.207031 23.878906 18.398437 49.6875 18.398437 76.703125 0 38.886719-12.859375 75.417969-37.179687 105.644531-23.625 29.359375-56.726563 50.191407-93.214844 58.65625l-5.847656 1.355469v35.152344h-65.027344v-35.152344l-5.851562-1.355469c-36.484376-8.464843-69.589844-29.296875-93.210938-58.65625-24.324219-30.226562-37.179688-66.757812-37.179688-105.644531 0-93.054688 75.703126-168.757812 168.753907-168.757812 54.839843 0 106.460937 26.808593 138.082031 71.710937l12.355469-8.703125c-34.445313-48.917969-90.683594-78.125-150.4375-78.125-101.386719 0-183.871094 82.484375-183.871094 183.871094 0 41.765625 14.390625 82.652344 40.519531 115.125 24.464844 30.40625 58.277344 52.417968 95.722656 62.441406v23.246094h-16.027343v79.230468h20.246093l21.878907 24.039063h13.972656v8.929687h-192.796875v15.113282h400.710938v-15.113282zm-56.101562-65.027343h48.542969v-15.117188h-48.542969v-16.941406h97.085938v16.941406h-24.5v15.117188h24.5v16.941406h-97.085938zm25.570312 32.058593h45.949219l-8.125 8.925782h-29.703125zm0 0"/><path d="m104.683594 464.824219h16.027344v15.117187h-16.027344zm0 0"/><path d="m104.683594 432.769531h16.027344v15.113281h-16.027344zm0 0"/><path d="m72.628906 464.824219h16.027344v15.117187h-16.027344zm0 0"/><path d="m72.628906 432.769531h16.027344v15.113281h-16.027344zm0 0"/><path d="m104.683594 400.710938h16.027344v15.117187h-16.027344zm0 0"/><path d="m40.570312 464.824219h16.027344v15.117187h-16.027344zm0 0"/><path d="m280.996094 464.824219h16.03125v15.117187h-16.03125zm0 0"/><path d="m280.996094 432.769531h16.03125v15.113281h-16.03125zm0 0"/><path d="m280.996094 400.710938h16.03125v15.117187h-16.03125zm0 0"/><path d="m313.054688 432.769531h16.027343v15.113281h-16.027343zm0 0"/><path d="m313.054688 464.824219h16.027343v15.117187h-16.027343zm0 0"/><path d="m345.113281 464.824219h16.027344v15.117187h-16.027344zm0 0"/><path d="m121.65625 294.195312c23.167969 16.65625 50.554688 25.464844 79.199219 25.464844 74.875 0 135.785156-60.914062 135.785156-135.789062 0-74.871094-60.910156-135.785156-135.785156-135.785156-74.871094 0-135.785157 60.914062-135.785157 135.785156 0 34.890625 13.199219 68.046875 37.160157 93.355468l10.980469-10.394531c-21.296876-22.488281-33.023438-51.953125-33.023438-82.960937 0-63.996094 50.082031-116.511719 113.109375-120.425782v112.867188h-80.597656v15.117188h208.582031c-3.914062 63.027343-56.425781 113.109374-120.425781 113.109374-25.457031 0-49.792969-7.820312-70.375-22.617187zm86.757812-230.75c60.527344 3.761719 109.109376 52.339844 112.867188 112.867188h-112.867188zm0 0"/><path d="m192.839844 240.425781h16.03125v15.117188h-16.03125zm0 0"/></g><path d="m192.839844 272.484375h16.03125v15.117187h-16.03125zm0 0" fill="#fff"/></svg>