<svg viewBox="0 0 512 512" xmlns="http://www.w3.org/2000/svg"><path d="m512 256c0 141.386719-114.613281 256-256 256s-256-114.613281-256-256 114.613281-256 256-256 256 114.613281 256 256zm0 0" fill="#9331b2"/><path d="m512 256c0-24.0625-3.328125-47.347656-9.535156-69.429688l-78.742188-78.140624-.621094-.792969c-3.003906-3.828125-7.664062-6.304688-12.882812-6.304688h-308.4375c-9.011719 0-16.386719 7.375-16.386719 16.386719v210.414062c0 2.199219.449219 4.300782 1.242188 6.222657h-31.082031v45.644531l118.648437 118.648438c25.683594 8.65625 53.191406 13.351562 81.796875 13.351562 141.386719 0 256-114.613281 256-256zm0 0" fill="#5c1b6f"/><path d="m410.21875 344.519531h-308.4375c-9.011719 0-16.386719-7.375-16.386719-16.386719v-210.414062c0-9.011719 7.375-16.382812 16.386719-16.382812h308.4375c9.011719 0 16.382812 7.371093 16.382812 16.382812v210.414062c.003907 9.011719-7.371093 16.386719-16.382812 16.386719zm0 0" fill="#fff"/><path d="m426.601562 117.71875v210.410156c0 2.210938-.441406 4.3125-1.242187 6.230469-2.460937 5.949219-8.328125 10.160156-15.140625 10.160156h-154.21875v-243.191406h154.21875c9.011719 0 16.382812 7.382813 16.382812 16.390625zm0 0" fill="#fff5cb"/><path d="m55.554688 334.355469h400.890624v45.644531h-400.890624zm0 0" fill="#00f8fe"/><path d="m256 334.359375h200.449219v45.640625h-200.449219zm0 0" fill="#00e8f2"/><path d="m103.5 119h305v198h-305zm0 0" fill="#ffec97"/><path d="m256 119h152.5v198h-152.5zm0 0" fill="#ffd400"/><path d="m166.5 334.355469h179v22.824219h-179zm0 0" fill="#00d9e0"/><path d="m256 334.359375h89.5v22.820313h-89.5zm0 0" fill="#00b7be"/><path d="m150.113281 218.820312 54.804688-33.140624v15.265624l-34.058594 21.136719 34.058594 20.617188v15.921875l-54.804688-32.625zm0 0" fill="#ff9a00"/><path d="m297.902344 171.679688-63.550782 92.644531h-15.917968l63.546875-92.644531zm0 0" fill="#ff9a00"/><g fill="#e67500"><path d="m281.980469 171.679688-25.980469 37.878906v23.203125l41.898438-61.082031zm0 0"/><path d="m361.886719 226-54.933594 32.621094v-15.921875l34.058594-20.613281-34.058594-21.140626v-15.265624l54.933594 33.144531zm0 0"/></g></svg>