<?xml version="1.0" encoding="iso-8859-1"?>
<!-- Generator: Adobe Illustrator 19.0.0, SVG Export Plug-In . SVG Version: 6.00 Build 0)  -->
<svg version="1.1" id="Capa_1" xmlns="http://www.w3.org/2000/svg" xmlns:xlink="http://www.w3.org/1999/xlink" x="0px" y="0px"
	 viewBox="0 0 512 512" style="enable-background:new 0 0 512 512;" xml:space="preserve">
<path style="fill:#2B6C7E;" d="M49.157,406.837C18.254,364.532,0,312.402,0,256C0,114.615,114.615,0,256,0s256,114.615,256,256
	c0,56.402-18.254,108.532-49.157,150.837c-1.677-3.172-5.005-5.337-8.843-5.337H58C54.162,401.5,50.834,403.665,49.157,406.837z"/>
<path style="fill:#F8BB5E;" d="M464,405.25C417.533,469.893,341.688,512,256,512S94.467,469.893,48,405.25V280h416V405.25z"/>
<path style="fill:#DCA050;" d="M271.951,511.504C266.676,511.83,261.358,512,256,512c-85.688,0-161.533-42.107-208-106.75V280h32
	v125.25C123.544,465.827,192.886,506.612,271.951,511.504z M337,380H175c-2.761,0-5,2.239-5,5v20c0,2.761,2.239,5,5,5h162
	c2.761,0,5-2.239,5-5v-20C342,382.239,339.761,380,337,380z M317,430H195c-2.761,0-5,2.239-5,5v20c0,2.761,2.239,5,5,5h122
	c2.761,0,5-2.239,5-5v-20C322,432.239,319.761,430,317,430z"/>
<path style="fill:#FBC56D;" d="M464,330H98c-27.614,0-50-22.386-50-50l0,0c0-27.614,22.386-50,50-50h361c2.761,0,5,2.239,5,5V330z"
	/>
<path style="fill:#FFDF8E;" d="M464,310H98c-16.569,0-30-13.431-30-30l0,0c0-16.569,13.431-30,30-30h366V310z"/>
<path style="fill:#FFF2B4;" d="M464,310H120c-16.569,0-30-13.431-30-30l0,0c0-16.569,13.431-30,30-30h344V310z"/>
<path style="fill:#FFDF8E;" d="M464,272.5H115c-2.761,0-5-2.239-5-5l0,0c0-2.761,2.239-5,5-5h349V272.5z"/>
<path style="fill:#FFB509;" d="M230,70c0,38.66-31.34,70-70,70s-70-31.34-70-70s31.34-70,70-70S230,31.34,230,70z"/>
<path style="fill:#FFC143;" d="M230,70c0,35.263-26.079,64.423-60,69.277c-33.921-4.854-60-34.014-60-69.277
	s26.079-64.423,60-69.277C203.921,5.577,230,34.737,230,70z"/>
<path style="fill:#56BED8;" d="M440,90c0,38.66-31.34,70-70,70s-70-31.34-70-70s31.34-70,70-70S440,51.34,440,90z"/>
<path style="fill:#6BC5DC;" d="M440,90c0,35.263-26.079,64.423-60,69.277c-33.921-4.854-60-34.014-60-69.277
	s26.079-64.423,60-69.277C413.921,25.577,440,54.737,440,90z"/>
<path style="fill:#80BE1C;" d="M180,240c0-38.66,31.34-70,70-70s70,31.34,70,70c0,19.592-8.058,37.294-21.03,50h-97.94
	C188.058,277.294,180,259.592,180,240z"/>
<path style="fill:#9BD04C;" d="M320,240c0,19.592-8.058,37.294-21.03,50h-75.989c-12.971-12.706-21.03-30.408-21.03-50
	c0-34.925,25.58-63.869,59.024-69.137C294.42,176.131,320,205.075,320,240z"/>
<path style="fill:#FFDF8E;" d="M464,297.5H115c-2.761,0-5-2.239-5-5l0,0c0-2.761,2.239-5,5-5h349V297.5z"/>
<path style="fill:#FFF5F5;" d="M410,90c0,5.523-4.477,10-10,10h-60c-5.523,0-10-4.477-10-10s4.477-10,10-10h60
	C405.523,80,410,84.477,410,90z M370,65c5.523,0,10-4.477,10-10s-4.477-10-10-10s-10,4.477-10,10S364.477,65,370,65z M370,115
	c-5.523,0-10,4.477-10,10c0,5.523,4.477,10,10,10s10-4.477,10-10S375.523,115,370,115z M278.284,211.716L278.284,211.716
	c-3.905-3.905-10.237-3.905-14.142,0L250,225.858l-14.142-14.142c-3.905-3.905-10.237-3.905-14.142,0l0,0
	c-3.905,3.905-3.905,10.237,0,14.142L235.858,240l-14.142,14.142c-3.905,3.905-3.905,10.237,0,14.142l0,0
	c3.905,3.905,10.237,3.905,14.142,0L250,254.142l14.142,14.142c3.905,3.905,10.237,3.905,14.142,0l0,0
	c3.905-3.905,3.905-10.237,0-14.142L264.142,240l14.142-14.142C282.189,221.953,282.189,215.621,278.284,211.716z M190,25
	c0,0-29.768,0-30,0c-5.523,0-10,4.477-10,10v45.858L134.142,65c-3.905-3.905-10.237-3.905-14.142,0s-3.905,10.237,0,14.142
	l32.108,32.108c0.135,0.135,0.279,0.253,0.419,0.379c1.832,2.063,4.497,3.371,7.473,3.371c5.523,0,10-4.477,10-10V45h20
	c5.523,0,10-4.477,10-10S195.523,25,190,25z"/>
<g>
</g>
<g>
</g>
<g>
</g>
<g>
</g>
<g>
</g>
<g>
</g>
<g>
</g>
<g>
</g>
<g>
</g>
<g>
</g>
<g>
</g>
<g>
</g>
<g>
</g>
<g>
</g>
<g>
</g>
</svg>
